<svg xmlns="http://www.w3.org/2000/svg" viewBox="0 0 2865.39 2100.05"><title>black-logo</title><g id="Layer_2" data-name="Layer 2"><g id="Layer_1-2" data-name="Layer 1"><path d="M2865.39,1019.78v2.3c-4.09.65-8.18,1.85-12.29,1.88q-65.42.69-130.85,1c-97.54.54-195.07,1.26-292.61,1.43q-354.7.58-709.4.71-268.6.19-537.22.08-362.17-.13-724.33-.49-138.31-.13-276.62-.85c-57-.26-114-.89-170.95-1.37-2.28,0-4.78.37-6.81-.39C2.52,1023.47,0,1021.4,0,1020c0-1.64,2.22-3.67,4-4.69,1.52-.9,3.7-.69,5.6-.84,41.16-3.27,82.32-6.73,123.5-9.7q73.75-5.32,147.58-9.91c32.42-2,64.88-3.14,97.33-4.78,39.67-2,79.35-4.24,119-6.17,15.66-.77,31.34-1,47-1.47q62.46-2,124.91-4.05c38.59-1.3,77.15-2.92,115.72-4,55.42-1.51,110.83-2.61,166.25-3.88,37.83-.88,75.64-2.1,113.48-2.55,63.88-.76,127.77-1.1,191.65-1.49,109.41-.67,218.82-1.58,328.24-1.69,64.24-.08,128.5,1.16,192.75,1.82,19.11.21,38.24.33,57.37.77q81.38,1.88,162.78,4c19.1.47,38.21.76,57.32,1.28q63,1.72,126,3.59c28.64.83,57.3,1.49,85.93,2.6,27.09,1,54.16,2.67,81.26,3.9,34,1.53,68,2.67,101.91,4.42,34.7,1.78,69.37,4.2,104.08,6.14,29.37,1.65,58.8,2.68,88.15,4.57,32.79,2.12,65.53,4.89,98.3,7.41q40,3.09,80,6.29c11.81,1,23.63,2,35.37,3.6C2859,1015.67,2862.12,1018.2,2865.39,1019.78Z"/><path d="M2865.39,1437.67v4.59c-4,1-8,2.74-12,3-61.37,4.66-122.74,9.37-184.14,13.59q-80.59,5.55-161.27,10.07c-38.16,2.08-76.38,3-114.56,4.72-33.59,1.49-67.15,3.56-100.74,4.9-31.32,1.25-62.66,1.78-94,2.86-27.11.93-54.2,2.31-81.3,3.24-24.08.83-48.16,1.41-72.25,1.91q-77.4,1.58-154.82,3c-16,.31-32.1.86-48.16,1q-166.94,1.54-333.88,3c-39.39.36-78.78,1.06-118.17,1-58.91-.07-117.81-.64-176.72-1-30.23-.2-60.44-.17-90.66-.71-63.84-1.16-127.67-2.63-191.5-4-16.44-.35-32.88-.54-49.32-1q-78-1.94-155.91-4c-39.36-1.13-78.7-2.35-118-3.93-35.88-1.45-71.72-3.54-107.58-5.16-23.3-1-46.61-1.55-69.9-2.72-37-1.87-74-4.13-111-6.14-29.39-1.59-58.79-2.85-88.17-4.64q-57.23-3.51-114.4-7.66c-35.84-2.61-71.66-5.56-107.48-8.53-3.85-.31-9.92.37-9.41-5.6s6.44-4.14,10.3-4.16c78.79-.55,157.56-1.21,236.35-1.37q305.33-.66,610.64-.91,564.75-.39,1129.51-.49,266.3,0,532.61.49,141.73.21,283.49.91c18,.08,35.91.76,53.86,1.4C2859.68,1435.48,2862.53,1436.86,2865.39,1437.67Z"/><path d="M2296,1517c-.48,2.57-.5,4.84-1.31,6.78-41.83,99.23-98.44,189-170.93,268.8a932.24,932.24,0,0,1-249,195,907.35,907.35,0,0,1-184.37,74.9c-49.06,13.89-98.75,24.29-149.34,30-26.55,3-53.34,4-80,5.82-9.13.64-18.29,2.1-27.38,1.75-49.65-1.94-99.2-4.9-148.36-12.85-51.42-8.31-102-20.19-151.1-37.32-33.86-11.8-67.22-25.44-99.79-40.45-85.75-39.52-162.88-92.29-232.46-156A934.32,934.32,0,0,1,572,1526.58c-1.14-2.71-1.94-5.57-3.55-10.26,5.25-.34,8.61-.73,12-.73,40.56,0,81.12.18,121.67-.19,7.95-.08,12.35,2.4,16,9.59,34.16,67.21,76.43,128.9,127.9,184.06,61.59,66,131.93,120.69,211.86,163,39.62,21,80.46,39,123.08,52.8,49.55,16,100,28.07,151.91,34.12,36.11,4.21,72.3,7.49,108.63,6.63A856.82,856.82,0,0,0,1559,1955.14a811.24,811.24,0,0,0,151.68-39.7,788.06,788.06,0,0,0,230.5-132.76A797,797,0,0,0,2133.45,1551c5.16-9.38,10.1-18.88,15-28.41,2.28-4.47,5.26-7,10.66-7,43.62.13,87.24.08,130.86.16C2291.73,1515.7,2293.52,1516.46,2296,1517Z"/><path d="M1500.53,893c0,8.15-1.12,9.62-9.14,9.66q-58.52.21-117.05,0c-8.57,0-9.69-1.58-9.69-10.33q.19-391.35.33-782.68c0-6.93,1.18-12.37,7.24-16.85,40.26-29.84,80.31-59.95,120.45-89.92,1.18-.88,2.67-1.31,6.09-2.92.25,5.46.57,9.14.57,12.82q.4,424.06.78,848.1C1500.13,871.63,1500.52,882.33,1500.53,893Z"/><path d="M2338.85,942.77c-3.8.7-6.6,1.66-9.41,1.67-40.18.09-80.35-.05-120.53.16-6.95,0-10.13-2.66-12.09-9.25a734.64,734.64,0,0,0-31.73-87.14,809.91,809.91,0,0,0-135.71-211.65c-40.54-45.73-86.25-85.63-135.64-121.43-5.88-4.26-8.49-9-8.45-16.25.21-44.78.08-89.55.14-134.32,0-2.93.56-5.86,1.16-11.72a934.95,934.95,0,0,1,373.2,381.73A913.79,913.79,0,0,1,2338.85,942.77Z"/><path d="M962.48,510.05c.07,8.18-2.59,13.52-9.06,18.28a745.8,745.8,0,0,0-93.94,82.34c-62.76,64.88-113.67,138-151.62,220-15.27,33-28.74,66.64-39.19,101.49-3.53,11.72-3.79,11.69-16,11.7q-56.25,0-112.48,0c-3.7,0-7.41-.44-12.76-.78,14.4-63.73,36.87-123.15,64.67-180.54,67.12-138.6,163.33-253.29,286.6-345.34,41-30.6,72.46-49.8,82.94-51.32.21,3.76.61,7.42.61,11.09C962.33,421.3,962.12,465.68,962.48,510.05Z"/><path d="M2115.73,1317.66l-22.54,9.21c-17.1-44.57-33.81-88.17-51.58-134.51l-67.89,111.3c-20-37.73-38.94-73.41-58.94-111.09-16.13,45.09-29.39,89.47-45.14,134.35l-21.24-7.51c21-60,41.71-119.35,63-180.35,22.15,41.07,43.63,80.92,66.06,122.52,23.72-39.16,46.24-76.35,70.19-115.88C2070.81,1204.16,2093.08,1260.43,2115.73,1317.66Z"/><path d="M1484.42,1143.38c-2.36,60.32-4.69,120.07-7.08,181-9.93-6-16.57-14.8-24.4-22.13-8.38-7.84-16.45-16-24.64-24q-11.88-11.64-23.73-23.31t-23.64-23.41c-8.18-8-16.39-16.06-24.56-24.12q-11.67-11.53-23.32-23.12l-2.44.85c-.66,45.24-1.32,90.49-2,137l-24.85-1.72c3-62,6.33-123.6,9.66-188,48.77,48.5,95.51,95,144.23,143.42.86-46.32,1.66-89.64,2.48-133.86,4.76,0,8.48-.16,12.18,0S1479.83,1142.86,1484.42,1143.38Z"/><path d="M896,1143.37c-2.32,60.26-4.61,120-7,182.48-25.89-24.5-49.42-48.15-73.23-71.5S768,1207.42,742.17,1182c-.54,48-1,93.29-1.58,140l-23-1.44c-2.24-9.08,5.34-170.48,8.9-186.52l140.87,139.68,2.39-1.35c.55-43.11,1.1-86.22,1.65-130.39,5,0,8.74-.17,12.45,0S891.33,1142.84,896,1143.37Z"/><path d="M1813.19,1148.42c-.44,29-.59,58.08-1.63,87.1a136.06,136.06,0,0,1-4.72,29.32c-9.51,36.36-37.1,58.47-74.72,59.63a105.69,105.69,0,0,1-29.48-3c-27.13-7-42.32-26.36-49.08-52.44a160.4,160.4,0,0,1-4.87-35.1c-.81-27.49-.53-55-.64-82.55,0-1.89.37-3.77.68-6.81H1673c0,3.93,0,7.24,0,10.56.19,29.41-.1,58.83.85,88.2.31,9.34,2.86,19,6.21,27.75,8.76,22.94,26.74,34,52,33.44,23.28-.53,42.51-13.54,49.47-35.76a144.67,144.67,0,0,0,6.52-38.17c.87-27.48.06-55-.06-82.53,0-2.19,0-4.4,0-7.06h24.58A67.91,67.91,0,0,1,1813.19,1148.42Z"/><path d="M1096.46,1243.38v72.88a65.85,65.85,0,0,1-7.67,2.57c-30.59,6.74-61.18,9.08-91.72-.3-14.49-4.45-27.46-11.48-38.13-22.4-17.28-17.71-25.62-44.54-12.44-71.8a120.53,120.53,0,0,1,29.1-38c27.23-24.14,59.62-37.91,95.77-47.45,2,7.87,3.58,14.42,5.43,21.87-5.38,1.38-10.11,2.51-14.81,3.82-28,7.76-54,19.56-74.17,41.15a93.07,93.07,0,0,0-17,25.51c-8.91,20.18-3.62,40.31,12.76,55.08a37.55,37.55,0,0,0,3.53,2.93c25.9,18.16,54.24,20.2,85,13.41v-59.3Z"/><path d="M1248.05,1301.1v22l-87.68-2.64V1143.52l83.19-4.46c.33,7,.6,12.94,1,20.61h-59.48v64.14l50.37-2.48c.62,6.34,1.18,11.86,1.76,17.85-9,3.8-17.74.93-26.27,1.31-8.31.37-16.65.08-25.77.08v60.53Z"/><path d="M2239.84,1278.33c-5.22,11-13.85,19.1-23.75,25.93-13.7,9.45-31.49,16.62-50.89,20.28-2.28-6.22-4.35-11.84-6.68-18.19,7.61-2.26,14.73-3.66,21.23-6.48,9.39-4.09,19.19-8.07,27.29-14.15,14.66-11,14-26.48-.8-37.13-6.79-4.88-14.62-8.28-21.69-12.82-8-5.14-16.4-10-23.33-16.41-11.18-10.32-12.73-23.29-5.18-36.48a63,63,0,0,1,11.35-14.27c16.58-15.54,36.7-24.21,59.78-29.73,1.93,6.52,3.69,12.5,5.6,19-8.62,2.65-16.49,4.31-23.7,7.49-8,3.51-16.09,7.47-22.77,12.91-11.88,9.69-11.31,21.44.83,30.68,5.74,4.37,12.34,7.6,18.53,11.39,8.15,5,16.55,9.59,24.36,15.07C2245.7,1246.42,2246.67,1263.93,2239.84,1278.33Z"/><rect x="620.6" y="1144.09" width="23.78" height="176.12"/><rect x="1554.75" y="1143.79" width="24.46" height="176.18"/></g></g></svg>